# AST/ASF file generated using VICON BodyLanguage
# -----------------------------------------------
:version 1.10
:name VICON
:units
  mass 1.0
  length 0.45
  angle deg
:documentation
   .ast/.asf automatically generated from VICON data using
   VICON BodyBuilder and BodyLanguage model FoxedUp or BRILLIANT.MOD
:root
   order TX TY TZ RX RY RZ
   axis XYZ
   position 0 0 0  
   orientation 0 0 0 
:bonedata
  begin
     id 1 
     name lhipjoint
     direction 0.561145 -0.797705 0.220866 
     length 2.46425 
     axis 0 0 0  XYZ
  end
  begin
     id 2 
     name lfemur
     direction 0.34202 -0.939693 0  
     length 7.95556  
     axis 0 0 20  XYZ
    dof rx ry rz
    limits (-160.0 20.0)
           (-70.0 70.0)
           (-60.0 70.0)
  end
  begin
     id 3 
     name ltibia
     direction 0.34202 -0.939693 0   
     length 7.9832   
     axis 0 0 20   XYZ
    dof rx
    limits (-10.0 170.0)
  end
  begin
     id 4 
     name lfoot
     direction 0.0723927 -0.198897 0.977343   
     length 2.23085   
     axis -90 7.62852e-016 20   XYZ
    dof rx rz
    limits (-45.0 90.0)
           (-70.0 20.0)
  end
  begin
     id 5 
     name ltoes
     direction 1.53826e-011 -4.21988e-011 1   
     length 1.12127   
     axis -90 7.62852e-016 20   XYZ
    dof rx
    limits (-90.0 20.0)
  end
  begin
     id 6 
     name rhipjoint
     direction -0.610499 -0.763299 0.21134   
     length 2.57533  
     axis 0 0 0  XYZ 
  end
  begin
     id 7 
     name rfemur
     direction -0.34202 -0.939693 0   
     length 8.65257   
     axis 0 0 -20   XYZ
    dof rx ry rz
    limits (-160.0 20.0)
           (-70.0 70.0)
           (-70.0 60.0)
  end
  begin
     id 8 
     name rtibia
     direction -0.342021 -0.939692 0   
     length 7.37807   
     axis 0 0 -20   XYZ
    dof rx
    limits (-10.0 170.0)
 end
 begin
     id 9 
     name rfoot
     direction -0.0239304 -0.0543852 0.998233   
     length 1.87018  
     axis -90 -7.62852e-016 -20   XYZ
    dof rx rz
    limits (-45.0 90.0)
           (-20.0 70.0)
  end
  begin
     id 10 
     name rtoes
     direction -1.53584e-011 -4.2242e-011 1   
     length 0.951568   
     axis -90 -7.62852e-016 -20   XYZ
    dof rx
    limits (-90.0 20.0)
  end
  begin
     id 11 
     name lowerback
     direction 0.00322089 0.999033 0.0438587   
     length 2.07568   
     axis 0 0 0   XYZ
    dof rx ry rz
    limits (-20.0 45.0)
           (-30.0 30.0)
           (-30.0 30.0)
  end
  begin
     id 12 
     name upperback
     direction -0.00321932 0.999732 -0.0229403   
     length 2.06253   
     axis 0 0 0   XYZ
    dof rx ry rz
    limits (-20.0 45.0)
           (-30.0 30.0)
           (-30.0 30.0)
  end
  begin
     id 13 
     name thorax
     direction -0.00537537 0.998955 -0.0453918   
     length 2.06975   
     axis 0 0 0   XYZ
    dof rx ry rz
    limits (-20.0 45.0)
           (-30.0 30.0)
           (-30.0 30.0)
  end
  begin
     id 14 
     name lowerneck
     direction -0.00013604 0.994111 0.108363   
     length 1.50836   
     axis 0 0 0   XYZ
    dof rx ry rz
    limits (-20.0 45.0)
           (-30.0 30.0)
           (-30.0 30.0)
  end
  begin
     id 15 
     name upperneck
     direction 0.0397262 0.983859 -0.174482   
     length 1.53037   
     axis 0 0 0   XYZ
    dof rx ry rz
    limits (-20.0 45.0)
           (-30.0 30.0)
           (-30.0 30.0)
  end
  begin
     id 16
     name head
     direction 0.0109991 0.997082 -0.0755378  
     length 1.56928  
     axis 0 0 0   XYZ
    dof rx ry rz
    limits (-20.0 45.0)
           (-30.0 30.0)
           (-30.0 30.0)
  end
  begin
     id 17 
     name lclavicle
     direction 0.964749 0.254 -0.068874  
     length 3.26503  
     axis 0 0 0   XYZ
    dof ry rz
    limits (-20.0 10.0)
           (0.0 20.0)
  end
  begin
     id 18 
     name lhumerus
     direction 1 -4.48941e-011 -2.05079e-027   
     length 5.68236   
     axis 180 -30 -90   XYZ
    dof rx ry rz
    limits (-60.0 90.0)
           (-90.0 90.0)
           (-90.0 90.0)
  end
  begin
     id 19
     name lradius
     direction 1 -4.48956e-011 6.2882e-027   
     length 3.17112   
     axis 180 -30 -90   XYZ
    dof rx
    limits (-10.0 170.0)
  end
  begin
     id 20
     name lwrist
     direction 1 -4.49014e-011 1.73219e-026   
     length 1.58556   
     axis -1.04724e-014 90 90   XYZ
    dof ry
    limits (-180.0 0.0)
 end
  begin
     id 21 
     name lhand
     direction 1 -4.49312e-011 3.46438e-026   
     length 0.632691   
     axis -2.21057e-014 90 90   XYZ
    dof rx rz
    limits (-90.0 90.0)
           (-45.0 45.0)
  end
  begin
     id 22 
     name lfingers
     direction 1 -4.48894e-011 6.92876e-026   
     length 0.510091   
     axis -4.42114e-014 90 90   XYZ
    dof rx
    limits (0.0 90.0)
  end
  begin
     id 23
     name lthumb
     direction 0.707107 -6.34705e-011 0.707107   
     length 0.732392   
     axis -90 45 2.85299e-015   XYZ
    dof rx rz
    limits (-45.0 45.0)
           (-45.0 45.0)
  end
  begin
     id 24 
     name rclavicle
     direction -0.954374 0.280496 -0.102435   
     length 3.25419  
     axis 0 0 0   XYZ 
    dof ry rz
    limits (-10.0 20.0)
           (-20.0 0.0)
  end
  begin
     id 25 
     name rhumerus
     direction -1 -4.48994e-011 -1.07204e-017  
     length 5.8712   
     axis 180 30 90   XYZ
    dof rx ry rz
    limits (-90.0 60.0)
           (-90.0 90.0)
           (-90.0 90.0)
  end
  begin
     id 26 
     name rradius
     direction -1 -4.48972e-011 5.89292e-027   
     length 3.37589   
     axis 180 30 90   XYZ
    dof rx
    limits (-10.0 170.0)
  end
  begin
     id 27 
     name rwrist
     direction -1 -4.48942e-011 1.73219e-026   
     length 1.68794   
     axis -1.04724e-014 -90 -90   XYZ
    dof ry
    limits (-180.0 0.0)
  end
  begin
     id 28
     name rhand
     direction -1 -4.48514e-011 3.46438e-026   
     length 0.603257   
     axis -2.21057e-014 -90 -90   XYZ
    dof rx rz
    limits (-90.0 90.0)
           (-45.0 45.0)
  end
  begin
     id 29
     name rfingers
     direction -1 -4.50028e-011 6.92876e-026   
     length 0.486362   
     axis -4.42114e-014 -90 -90   XYZ
    dof rx
    limits (0.0 90.0)
  end
  begin
     id 30
     name rthumb
     direction -0.707107 -6.34926e-011 0.707107   
     length 0.698321   
     axis -90 -45 -2.85299e-015   XYZ
    dof rx rz
    limits (-45.0 45.0)
           (-45.0 45.0)
  end
:hierarchy
  begin
    root lhipjoint rhipjoint lowerback
    lhipjoint lfemur
    lfemur ltibia
    ltibia lfoot
    lfoot ltoes
    rhipjoint rfemur
    rfemur rtibia
    rtibia rfoot
    rfoot rtoes
    lowerback upperback
    upperback thorax
    thorax lowerneck lclavicle rclavicle
    lowerneck upperneck
    upperneck head
    lclavicle lhumerus
    lhumerus lradius
    lradius lwrist
    lwrist lhand lthumb
    lhand lfingers
    rclavicle rhumerus
    rhumerus rradius
    rradius rwrist
    rwrist rhand rthumb
    rhand rfingers
  end

#!OML:ASF I:\Segmentation\Patient Classification 1\Patient 1\Session 1\Patient1.ASF
:FULLY-SPECIFIED
:DEGREES
3296
root 13.9738 18.6496 -0.00355635 -27.0386 -88.9221 -327.957
lowerback -8.08738 0.522768 0.548841
upperback 2.73196 0.580308 0.737056
thorax 7.41393 0.287819 0.549112
lowerneck -14.8082 -4.87436 -3.43581
upperneck 13.1741 -6.96761 6.32887
head 6.80288 -3.01729 1.87719
rclavicle -2.38542e-015 -2.38542e-015
rhumerus -5.16142 4.04615 -94.2834
rradius 99.6824
rwrist -48.1353
rhand -36.6296 0.349843
rfingers 7.12502
rthumb -9.7173 -29.406
lclavicle -2.38542e-015 -2.38542e-015
lhumerus 10.2996 -21.6363 81.6433
lradius 109.515
lwrist 4.69328
lhand -29.7489 28.3541
lfingers 7.12502
lthumb -3.07499 58.3117
rfemur -11.104 10.9824 15.7337
rtibia 20.841
rfoot -3.23341 15.1445
rtoes 30.0646
lfemur -10.6244 -8.44455 -16.9655
ltibia 20.3607
lfoot -28.4513 14.3795
ltoes 3.34479
3297
root 13.9798 18.6499 -0.00390094 -29.9939 -89.0137 -324.999
lowerback -8.07455 0.541408 0.551192
upperback 2.71937 0.604083 0.752724
thorax 7.39282 0.299165 0.56739
lowerneck -14.7283 -4.87915 -3.38057
upperneck 13.1391 -6.97542 6.26895
head 6.77402 -3.02567 1.84999
rclavicle 1.13307e-014 1.03368e-014
rhumerus -4.99204 5.14489 -94.6349
rradius 99.9023
rwrist -48.0276
rhand -36.3527 0.620831
rfingers 7.12502
rthumb -9.45012 -29.1473
lclavicle 1.13307e-014 1.03368e-014
lhumerus 10.2687 -22.3844 81.7852
lradius 109.226
lwrist 4.58086
lhand -29.5053 28.3902
lfingers 7.12502
lthumb -2.83974 58.3511
rfemur -11.165 11.0476 15.7277
rtibia 20.8865
rfoot -3.19606 15.1039
rtoes 30.0427
lfemur -10.5985 -8.4037 -16.9634
ltibia 20.2977
lfoot -28.5055 14.3797
ltoes 3.5398
3298
root 13.9853 18.6502 -0.00409776 -32.7972 -89.0934 -322.187
lowerback -8.07153 0.55256 0.546597
upperback 2.70591 0.617427 0.782917
thorax 7.37628 0.304677 0.60344
lowerneck -14.6306 -4.8904 -3.3563
upperneck 13.0858 -6.98488 6.21266
head 6.73754 -3.03666 1.82927
rclavicle -1.78906e-015 -3.97569e-015
rhumerus -4.83163 6.38734 -95.0068
rradius 100.191
rwrist -47.9344
rhand -36.0766 0.809363
rfingers 7.12502
rthumb -9.1837 -28.9707
lclavicle -1.78906e-015 -3.97569e-015
lhumerus 10.2526 -23.2958 81.8914
lradius 108.809
lwrist 4.423
lhand -29.2685 28.4011
lfingers 7.12502
lthumb -2.61098 58.3649
rfemur -11.2235 11.0846 15.7264
rtibia 20.9134
rfoot -3.15628 15.0588
rtoes 30.0782
lfemur -10.5945 -8.38543 -16.9555
ltibia 20.2618
lfoot -28.5307 14.4436
ltoes 3.44044
3299
root 13.9899 18.6503 -0.00415487 -35.4172 -89.1414 -319.56
lowerback -8.07334 0.550443 0.518956
upperback 2.69366 0.61469 0.824012
thorax 7.36352 0.300951 0.661671
lowerneck -14.5635 -4.90522 -3.36239
upperneck 13.0641 -6.99525 6.16352
head 6.71784 -3.04772 1.81487
rclavicle 1.49089e-015 -3.18055e-015
rhumerus -4.67048 7.78222 -95.3753
rradius 100.543
rwrist -47.8658
rhand -35.8013 0.914108
rfingers 7.12502
rthumb -8.91809 -28.8774
lclavicle 1.49089e-015 -3.18055e-015
lhumerus 10.2433 -24.3624 81.9563
lradius 108.267
lwrist 4.2282
lhand -29.0173 28.3846
lfingers 7.12502
lthumb -2.36846 58.3512
rfemur -11.2691 11.0845 15.7165
rtibia 20.9277
rfoot -3.11566 15.0133
rtoes 30.1507
lfemur -10.6003 -8.35999 -16.9588
ltibia 20.2426
lfoot -28.4838 14.5551
ltoes 3.04233
3300
root 13.9937 18.6502 -0.00396955 -37.2429 -89.1704 -317.731
lowerback -8.07512 0.541608 0.496516
upperback 2.68367 0.602558 0.862417
thorax 7.35334 0.292935 0.712828
lowerneck -14.5621 -4.921 -3.36667
upperneck 13.105 -7.01101 6.11926
head 6.72988 -3.05849 1.79946
rclavicle 1.68967e-015 -1.15295e-014
rhumerus -4.49553 9.30492 -95.7499
rradius 100.946
rwrist -47.8115
rhand -35.5358 0.939527
rfingers 7.12502
rthumb -8.6619 -28.8628
lclavicle 1.68967e-015 -1.15295e-014
lhumerus 10.2473 -25.579 81.946
lradius 107.625
lwrist 4.02329
lhand -28.6568 28.3694
lfingers 7.12502
lthumb -2.02022 58.3396
rfemur -11.3008 11.0644 15.709
rtibia 20.9309
rfoot -3.08097 14.9634
rtoes 30.2101
lfemur -10.6106 -8.31297 -16.9617
ltibia 20.2359
lfoot -28.3879 14.6578
ltoes 2.59243
3301
root 13.9975 18.6501 -0.00357742 -37.8558 -89.1999 -317.117
lowerback -8.06943 0.533982 0.506406
upperback 2.67168 0.589487 0.888507
thorax 7.33721 0.286299 0.732612
lowerneck -14.6266 -4.93482 -3.34225
upperneck 13.2084 -7.03333 6.07568
head 6.77267 -3.06865 1.77719
rclavicle -1.49089e-016 1.15295e-014
rhumerus -4.3041 10.9305 -96.1385
rradius 101.396
rwrist -47.7682
rhand -35.3065 0.911929
rfingers 7.12502
rthumb -8.44061 -28.8994
lclavicle -1.49089e-016 1.15295e-014
lhumerus 10.271 -26.9309 81.8359
lradius 106.912
lwrist 3.83403
lhand -28.0876 28.3884
lfingers 7.12502
lthumb -1.4705 58.3631
rfemur -11.3254 11.0523 15.7178
rtibia 20.9242
rfoot -3.06537 14.9112
rtoes 30.2146
lfemur -10.6265 -8.25587 -16.9466
ltibia 20.2395
lfoot -28.3103 14.6891
ltoes 2.42285
3302
root 14.0015 18.6498 -0.00305846 -37.8299 -89.2287 -317.142
lowerback -8.05409 0.528331 0.540979
upperback 2.65459 0.577739 0.8985
thorax 7.31048 0.281915 0.721614
lowerneck -14.7242 -4.94112 -3.28842
upperneck 13.3427 -7.05402 6.03559
head 6.83018 -3.07517 1.75056
rclavicle 6.06293e-015 7.95139e-015
rhumerus -4.09433 12.6579 -96.5226
rradius 101.898
rwrist -47.7643
rhand -35.1356 0.875746
rfingers 7.12502
rthumb -8.27564 -28.9422
lclavicle 6.06293e-015 7.95139e-015
lhumerus 10.3179 -28.3887 81.6247
lradius 106.152
lwrist 3.66859
lhand -27.2485 28.4482
lfingers 7.12502
lthumb -0.660082 58.4269
rfemur -11.3455 11.0558 15.7327
rtibia 20.9099
rfoot -3.0735 14.8621
rtoes 30.1678
lfemur -10.6468 -8.20591 -16.9227
ltibia 20.2497
lfoot -28.2988 14.6241
ltoes 2.68165
3303
root 14.0051 18.6497 -0.00227092 -38.3613 -89.2471 -316.61
lowerback -8.03683 0.52506 0.580593
upperback 2.63333 0.569968 0.892337
thorax 7.27836 0.280168 0.691317
lowerneck -14.8156 -4.93805 -3.22243
upperneck 13.4718 -7.06599 6.00306
head 6.88448 -3.07652 1.72548
rclavicle 3.13086e-015 3.97569e-016
rhumerus -3.87066 14.4786 -96.8784
rradius 102.451
rwrist -47.812
rhand -35.0061 0.853855
rfingers 7.12502
rthumb -8.15065 -28.9689
lclavicle 3.13086e-015 3.97569e-016
lhumerus 10.3945 -29.9198 81.3322
lradius 105.352
lwrist 3.50619
lhand -26.1321 28.5316
lfingers 7.12502
lthumb 0.418127 58.5109
rfemur -11.3589 11.0535 15.7331
rtibia 20.8921
rfoot -3.08675 14.8083
rtoes 30.0919
lfemur -10.6643 -8.17607 -16.9141
ltibia 20.2603
lfoot -28.3552 14.4997
ltoes 3.20995
3304
root 14.008 18.65 -0.00105874 -40.1368 -89.2592 -314.835
lowerback -8.02084 0.527369 0.612416
upperback 2.60723 0.570884 0.882567
thorax 7.24172 0.282424 0.66282
lowerneck -14.8811 -4.93046 -3.17281
upperneck 13.5839 -7.0685 5.97517
head 6.92923 -3.07456 1.70619
rclavicle 7.95139e-016 -5.56597e-015
rhumerus -3.65445 16.3641 -97.1908
rradius 103.051
rwrist -47.8814
rhand -34.87 0.849402
rfingers 7.12502
rthumb -8.01933 -28.9785
lclavicle 7.95139e-016 -5.56597e-015
lhumerus 10.5005 -31.4903 81
lradius 104.51
lwrist 3.30983
lhand -24.7764 28.613
lfingers 7.12502
lthumb 1.72751 58.5857
rfemur -11.3681 11.0326 15.7145
rtibia 20.8772
rfoot -3.08424 14.7422
rtoes 29.9965
lfemur -10.6713 -8.17407 -16.927
ltibia 20.2641
lfoot -28.4525 14.3881
ltoes 3.73439
3305
root 14.0101 18.6507 0.000456159 -43.2409 -89.2737 -311.732
lowerback -8.00339 0.534972 0.627578
upperback 2.57811 0.579797 0.885854
thorax 7.20068 0.28748 0.658484
lowerneck -14.9319 -4.92283 -3.166
upperneck 13.6891 -7.06153 5.94952
head 6.97032 -3.07036 1.69591
rclavicle -5.81445e-015 -3.97569e-015
rhumerus -3.4613 18.2828 -97.4597
rradius 103.683
rwrist -47.9278
rhand -34.6813 0.863065
rfingers 7.12502
rthumb -7.83722 -28.9717
lclavicle -5.81445e-015 -3.97569e-015
lhumerus 10.6337 -33.0572 80.6603
lradius 103.629
lwrist 3.04504
lhand -23.2352 28.6544
lfingers 7.12502
lthumb 3.21593 58.6099
rfemur -11.3764 11 15.6843
rtibia 20.8689
rfoot -3.05495 14.6662
rtoes 29.8915
lfemur -10.6654 -8.18731 -16.954
ltibia 20.2579
lfoot -28.544 14.3441
ltoes 4.07316
